 <svg xmlns="http://www.w3.org/2000/svg" width="181" height="114" viewBox="0 0 181 114" fill="none">
                        <g clip-path="url(#clip0_47_674)">
                            <path d="M105.872 0.0245011C112.465 3.23418 118.039 8.04869 124.166 11.986L123.49 13.1423L112.494 5.72619C114.895 9.37446 118.506 11.8266 120.926 15.3652L120.25 16.1028L116.648 12.9828L116.324 13.222C116.94 13.9794 117.506 14.7786 118.02 15.6144C118.373 16.2822 118.802 17.2192 118.592 17.8073C118.382 18.3954 117.372 18.6446 116.686 18.6646C113.923 18.7244 111.15 18.7243 108.387 18.5748C106.929 18.4951 106.367 18.9736 106.358 20.4787C106.358 22.1932 106.186 23.9177 106.091 25.6919C109.988 23.3096 111.417 23.8678 114.333 28.9017C117.029 26.7685 119.669 24.5457 122.441 22.5421C123.912 21.4118 125.586 20.6054 127.363 20.1719C129.14 19.7384 130.983 19.6868 132.78 20.0202C134.142 20.2694 135.638 19.5317 137.125 19.2626C147.291 17.3787 151.998 22.1134 154.714 31.2241C157.067 39.1985 156.191 47.2426 154.552 55.207C152.732 64.0685 150.512 72.8403 148.93 81.7416C147.768 88.3305 147.025 87.2539 153.266 90.2942C160.193 93.6534 167.225 96.7933 174.095 100.262C175.543 101 176.439 102.884 177.63 104.199C178.02 104.628 178.582 104.877 178.983 105.266C179.383 105.655 180.317 106.263 180.269 106.721C180.21 107.095 180.067 107.45 179.852 107.755C179.636 108.06 179.355 108.307 179.03 108.476C175.635 109.501 172.164 110.231 168.654 110.659C160.402 111.267 152.122 111.596 143.88 111.805C137.372 111.964 130.855 111.735 124.338 111.805C118.344 111.805 112.341 111.885 106.348 112.094C101.308 112.283 96.2671 112.672 91.2266 113.091C87.4152 113.37 83.6896 114.088 79.9259 114.008C72.3509 113.908 64.7949 113.35 57.2294 113.131C48.4919 112.882 39.7449 112.881 31.0074 112.642C23.3847 112.433 15.7049 112.074 8.06313 111.645C7.4152 111.645 6.81492 110.738 6.15746 110.25C6.72916 109.692 7.22464 108.825 7.89163 108.635C9.69248 108.147 11.56 107.947 13.8564 107.549C7.02454 103.561 3.49906 97.5807 1.59339 90.3141C1.33612 89.3173 1.08838 88.3205 0.831116 87.3237V83.3366C1.66008 80.1069 2.10791 76.6979 3.37518 73.6676C8.38709 61.7061 22.6034 53.9511 35.5143 59.7125C37.3056 53.4427 40.2023 47.9903 47.339 47.8407C53.7135 47.6912 58.773 50.7115 62.3843 56.463C61.0865 53.3941 59.3869 50.5291 57.3342 47.9504C56.5053 46.9536 54.5234 46.9536 53.056 46.6346C51.9221 46.3555 50.7597 46.1661 49.6163 45.9468L50.2451 43.2654C49.0692 41.8744 47.9838 40.4025 46.996 38.8596C46.9007 38.6902 48.4729 37.4541 49.2447 36.7364V32.9387C47.5867 33.457 45.9669 34.0551 44.2994 34.4438C43.5142 34.7038 42.6645 34.6469 41.9174 34.2843C41.0261 33.3771 40.2481 32.3556 39.602 31.2441C39.602 31.0846 40.0593 29.9283 39.8592 29.7987C37.9059 28.5029 39.2971 27.3666 39.9831 26.3499C45.157 18.7443 50.3404 11.1487 55.6572 3.64287C56.4378 2.64421 57.5581 2.00107 58.7825 1.84865C68.0822 1.35025 77.4009 1.04123 86.7101 0.642508C91.0455 0.453118 95.3714 0.213924 99.6973 -0.00537109L105.872 0.0245011ZM141.622 41.212L142.356 41.4313C142.358 42.0661 142.307 42.6998 142.203 43.3252C138.811 56.1639 133.275 67.966 127.701 79.8079C125.71 84.0741 123.061 88.0613 121.365 92.4173C119.84 96.3447 119.154 100.641 118.192 104.788C117.773 106.562 118.563 107.648 120.326 107.828C126.443 108.446 132.561 109.532 138.678 109.522C147.834 109.522 157.001 108.765 166.148 108.226C168.439 108.088 170.714 107.728 172.942 107.15C173.443 107.01 173.909 106.76 174.31 106.416C174.711 106.072 175.037 105.643 175.267 105.156C175.476 104.518 174.647 103.163 173.933 102.634C172.204 101.335 170.36 100.214 168.425 99.2853C162.108 96.2949 155.686 93.5437 149.369 90.5434C146.043 88.9585 145.395 87.553 146.158 83.825C148.33 73.3686 150.521 62.8923 152.827 52.5057C154.733 43.8336 154.8 35.3309 151.16 27.1074C150.318 24.9887 148.858 23.2027 146.987 22.005C145.117 20.8072 142.932 20.259 140.745 20.4388C135.525 20.8753 130.541 22.8988 126.405 26.2601C121.965 29.9283 117.887 34.085 113.704 38.0921C111.998 39.7268 110.445 41.531 108.663 43.4249C109.75 43.9632 110.464 44.3021 111.15 44.6809C114.257 46.4153 116.991 48.2793 120.965 45.887C124.052 44.013 126.072 45.887 126.558 49.6648C126.967 52.9443 125.605 55.6456 124.033 58.2173C120.945 63.301 115.286 65.1949 110.474 62.8325C108.768 61.9952 107.11 61.0283 105.471 60.0515C104.014 59.1942 103.175 59.5331 102.279 61.0483C98.6206 67.3281 93.7802 72.0129 86.5196 73.3387C86.0768 73.4264 85.6565 73.6101 85.2856 73.8779C84.9147 74.1457 84.6015 74.4917 84.3661 74.8937C83.0798 77.8841 82.0412 80.9841 80.9264 83.9844C83.0131 86.1475 83.0131 86.1475 81.5553 88.7591L83.9374 91.7495L81.9459 93.4241C81.8507 94.8794 82.0698 96.1852 81.622 97.1621C81.1087 98.4032 80.2086 99.4256 79.0684 100.063C78.2108 100.442 76.9055 99.6939 75.743 99.4447C74.6282 101.727 73.4276 101.807 71.7411 99.6241C70.7875 98.3471 69.7427 97.1475 68.6158 96.0357C66.5291 94.0421 64.2709 92.2579 62.1842 90.2643C61.101 89.1082 60.0799 87.8902 59.1256 86.616C56.1527 91.261 55.6477 91.6498 53.3514 90.5434C57.7821 87.0247 58.7444 82.8182 55.7239 78.0037C54.5077 78.3777 53.2651 78.651 52.0079 78.8211C48.1774 79.1344 44.3777 77.9008 41.3898 75.3739C38.4019 72.847 36.4528 69.2186 35.9431 65.2347C35.4381 61.5964 33.7706 60.5996 30.9788 60.0614C29.9784 59.8247 28.9671 59.6417 27.9488 59.5132C17.1532 58.6559 6.8435 66.4907 3.68962 77.2162C0.307057 88.7691 5.73822 101.359 14.6853 106.123C22.9941 110.569 31.2647 111.436 39.3638 105.804C40.0357 105.273 40.829 104.934 41.6647 104.822C42.5004 104.71 43.3496 104.829 44.1279 105.166C48.8921 106.811 53.6563 108.705 58.6015 109.652C66.6244 111.187 74.733 110.948 82.9178 110.35C99.0589 109.173 112.103 102.924 120.326 87.7922C123.899 81.2034 127.444 74.5847 130.56 67.7567C134.123 59.9617 137.229 51.9276 140.498 44.003C140.898 43.096 141.26 42.2088 141.622 41.212ZM65.7001 31.1444C66.1098 32.211 66.4052 33.1978 66.8531 34.1348C68.9588 38.431 70.4834 42.7571 70.2261 47.8108C69.8064 55.2266 68.3489 62.5379 65.9002 69.511C65.319 71.1956 65.1189 72.7705 66.1384 74.176C68.5586 77.5053 70.9502 80.8645 73.6468 83.9346C75.057 85.5494 78.5348 84.7221 79.2685 83.0176C85.9383 67.4875 88.0155 51.1201 87.844 34.2743C87.8965 32.3901 88.3386 30.5401 89.1399 28.8518C90.1975 26.4794 91.7983 24.3563 92.875 21.9839C93.2561 21.1366 92.7892 19.8607 92.713 18.7742C91.867 18.9605 91.058 19.2977 90.3214 19.771C89.1314 21.0863 88.0056 22.4637 86.9483 23.8977L85.843 25.2733L85.2142 24.9145C85.5667 23.9974 85.8907 23.0803 86.2718 22.1832C87.1987 20.2344 88.0318 18.2383 88.7682 16.2024C89.0065 15.4549 88.3966 14.4182 88.1775 13.5211C87.3295 13.8101 86.1765 13.8301 85.7001 14.4382C84.445 16.1103 83.3383 17.8986 82.3938 19.781C81.4409 21.645 80.7073 23.6286 79.8878 25.5624L79.1446 25.2833C79.2565 24.2676 79.4639 23.2659 79.764 22.2929C80.7168 19.8707 81.946 17.5481 82.8702 15.106C83.0133 14.6773 83.0702 14.2222 83.0374 13.7694C83.0046 13.3166 82.8828 12.8757 82.6796 12.4744C82.3969 12.1987 82.0518 12.0028 81.6767 11.9052C81.3017 11.8075 80.909 11.8113 80.5358 11.9162C79.4686 12.4246 78.1156 13.2021 77.7439 14.2188C76.8158 17.0765 76.0365 19.9848 75.4095 22.9308C75.1713 23.8578 75.057 24.8148 74.8854 25.7617L73.9803 25.682C73.428 23.7003 73.3983 21.5994 73.8945 19.6015C74.2947 17.5382 74.9998 15.5446 75.7335 12.943C74.5234 13.0925 73.4086 12.8832 72.875 13.3716C71.691 14.4111 70.7189 15.6891 70.0165 17.1295C68.6062 20.398 68.2972 24.07 69.1399 27.546C69.6067 29.5894 69.4543 31.0248 66.9388 30.8553C66.5145 30.8999 66.0979 31.0038 65.7001 31.1643V31.1444ZM104.528 4.40044C103.794 4.40044 103.108 4.40044 102.413 4.40044C87.3199 4.88887 72.2175 5.3972 57.1246 5.9255C56.6441 5.9854 56.1796 6.14394 55.7578 6.39196C55.3359 6.63998 54.965 6.97262 54.6663 7.37087C51.56 11.7468 48.5586 16.2025 45.5667 20.6681C44.0231 22.9807 42.5653 25.363 40.6977 28.2836L66.0908 26.6289C67.0436 22.263 67.5486 18.3855 68.8921 14.8668C70.0641 11.7967 72.2556 9.88278 76.086 11.2285C76.6643 11.3441 77.263 11.238 77.7725 10.9294C81.1075 9.1352 82.6987 9.40433 84.9664 12.2352C89.2066 10.6703 90.369 11.4876 91.1694 16.651C93.3419 16.4018 95.1427 17.2092 95.2189 19.6414C95.2761 21.4556 94.4853 23.2897 94.0374 25.2733L99.5162 24.8247C101.212 18.3157 102.88 11.9562 104.519 5.59661C104.562 5.20601 104.565 4.81171 104.528 4.4204V4.40044ZM80.7263 87.0646L80.5834 86.3668C78.8189 86.4715 77.0501 86.4715 75.2856 86.3668C73.9666 86.3108 72.6904 85.8612 71.6077 85.071C67.9202 81.652 64.7378 77.7445 63.3657 72.6509C63.2637 71.6294 63.4215 70.5978 63.823 69.6605C65.1189 65.0653 66.4719 60.48 67.7963 55.8948L66.7197 55.2469L61.7268 61.2277C61.4726 60.8593 61.2734 60.4525 61.136 60.0215C60.1832 55.7353 57.5534 53.044 53.885 51.1401C49.178 48.7379 44.0612 49.4256 41.0503 52.9244C38.6712 55.612 37.333 59.1293 37.2961 62.7921C37.2591 66.4549 38.5259 70.001 40.8502 72.7406C44.309 76.9969 51.0074 78.522 55.7335 76.03C57.2675 75.2326 57.7725 76.2593 58.1823 77.3358C59.0303 79.5487 59.7258 81.8115 60.5453 84.0343C63.0036 90.663 69.3018 93.5736 73.6182 98.4977C73.1418 97.3813 72.6653 96.265 72.1794 95.1585L72.8083 94.5007L77.9155 98.4878L78.2966 97.9396C77.4962 97.2219 76.6482 96.544 75.905 95.7665C75.1618 94.989 74.6949 94.2514 74.0946 93.4839L74.7044 92.9755L80.0975 96.0656L80.5262 95.3081C79.4243 94.614 78.3588 93.8587 77.3342 93.0453C76.9109 92.5313 76.5698 91.9489 76.3242 91.3209C76.9253 91.141 77.5475 91.0504 78.1727 91.0517C79.2316 91.2192 80.2812 91.4454 81.3171 91.7295L81.4124 91.281L75.2189 87.9816L80.7263 87.0646ZM91.6553 50.8211L91.2266 50.3626C91.2233 50.1295 91.2555 49.8974 91.3218 49.6748C91.5186 49.3246 91.7416 48.9913 91.9888 48.678C94.7139 44.8404 98.4776 42.468 102.918 42.7571C106.586 42.9963 108.73 41.4114 110.769 38.8197C111.274 38.1818 111.922 37.6834 112.399 37.0255C112.767 36.6147 112.986 36.0823 113.018 35.5203C112.77 33.1649 112.353 30.8324 111.77 28.5428C111.546 28.0848 111.222 27.6883 110.825 27.3852C110.428 27.0822 109.968 26.8812 109.483 26.7984C108.902 26.7286 107.911 27.7952 107.577 28.5627C106.885 30.3977 106.29 32.2712 105.795 34.1747C105.271 35.949 104.319 36.9657 102.356 36.7962C100.537 36.6426 98.7094 36.9326 97.0163 37.6435C95.3232 38.3544 93.811 39.4668 92.5986 40.8931C91.9317 41.6008 91.3314 42.767 90.5691 42.8866C89.0255 43.1657 89.2733 44.1526 89.1684 45.1793C88.5491 51.16 87.9869 57.1408 87.2628 63.1215C86.9483 65.6036 86.2432 68.0258 85.6525 70.7271C95.5429 69.3316 99.8021 61.437 104.843 54.3797V56.8916C106.51 57.8086 108.016 58.7257 109.607 59.4633C111.058 60.2561 112.611 60.8236 114.218 61.1479C118.63 61.7061 122.87 57.9283 124.08 52.3761C124.376 51.0604 123.871 49.5452 123.728 48.1298C122.47 48.3491 121.05 48.2394 119.993 48.8474C119.127 49.4268 118.125 49.7447 117.098 49.7658C116.07 49.7869 115.057 49.5105 114.171 48.9671C112.522 47.9703 110.855 47.0632 109.188 46.1462C106.77 44.7043 103.958 44.1561 101.206 44.5901C98.4544 45.0242 95.9223 46.415 94.0184 48.5384C93.2561 49.3359 92.4367 50.0636 91.6553 50.8211ZM54.7139 40.3149L54.247 41.222L49.0255 39.059L48.673 40.0558L56.429 42.9166L51.6172 44.7108C59.3828 43.7638 61.4791 49.7944 64.0041 55.3565C65.1284 54.6787 66.1765 54.1205 67.158 53.4427C68.5967 52.4459 68.349 50.5021 67.158 48.1597C65.0331 43.8435 59.7544 41.3416 60.4881 35.3509C60.2923 35.8543 60.1517 36.3793 60.0689 36.9159C59.8661 37.4834 59.6274 38.0362 59.3542 38.5705C58.8676 38.2558 58.4141 37.8883 58.0012 37.4741C57.4009 36.6367 56.915 35.7098 56.3719 34.8226L55.9431 35.0917L57.3723 38.6303C54.1708 39.976 53.561 35.64 50.55 35.5602L54.7139 40.3149ZM117.077 16.8803C113.875 12.7536 110.884 8.90591 107.901 5.04832L107.377 5.41719C107.053 9.15517 106.729 12.8832 106.377 16.8803H117.077ZM58.0012 33.8258C59.2399 33.3474 60.3261 32.53 60.8597 32.829C61.6707 33.4448 62.2397 34.3483 62.4605 35.3708C62.8321 36.7564 62.4033 38.5506 63.0989 39.6271C64.6059 41.6723 66.259 43.595 68.0441 45.3786L68.7111 45.0198C67.1389 40.4345 65.5572 35.8593 63.9469 31.0647L56.2671 31.892L58.0012 33.8258ZM89.5591 41.4313C93.7611 38.2914 94.5424 33.9354 95.0379 29.3801C90.7978 28.8418 90.1403 29.2106 89.6163 33.4371C89.4398 36.1046 89.4175 38.7809 89.5496 41.4513L89.5591 41.4313ZM105.557 27.7753L96.9817 29.7689C96.7816 31.5731 96.572 33.4968 96.3623 35.3309C98.3442 35.0917 100.174 34.9422 102.022 34.6133C102.355 34.5665 102.674 34.4486 102.961 34.2668C103.248 34.085 103.496 33.8433 103.69 33.5567C104.414 31.7026 104.928 29.7489 105.548 27.7952L105.557 27.7753ZM105.024 2.65605V1.91843L57.5534 3.41362V4.41042L105.024 2.65605ZM115.419 33.3075L129.464 21.625C128.701 21.6479 127.947 21.8063 127.234 22.0935C123.737 24.2865 120.336 26.629 116.848 28.8319C115.057 29.9582 114.495 31.3737 115.41 33.3274L115.419 33.3075ZM67.3771 29.2505V28.1939C64.8997 28.3933 62.4319 28.6325 59.9545 28.7721C54.6091 29.0811 49.2542 29.3203 43.9183 29.6492C43.193 29.76 42.4829 29.9607 41.803 30.2473L41.965 30.8454L67.3771 29.2505ZM103.585 16.7108L103.07 16.6112C102.556 18.824 102.003 21.0269 101.536 23.2598C101.127 25.2534 100.221 26.4794 98.0489 26.4695C96.3052 26.4695 94.5615 26.7685 92.8178 26.9379V27.7354C95.5143 27.7354 98.2204 27.7354 100.926 27.7354C101.139 27.6855 101.337 27.5824 101.503 27.4348C101.669 27.2872 101.798 27.0996 101.879 26.8881C102.527 23.4492 103.042 20.07 103.585 16.681V16.7108Z" fill="#DB915E" />
                            <path d="M32.6177 63.8294C32.5183 65.1716 32.324 66.5043 32.0365 67.8166C29.9212 75.3124 25.4238 80.2267 17.944 81.9112C17.0913 82.2643 16.282 82.7227 15.5334 83.2768L14.8854 80.0373C20.6024 80.8247 24.49 78.0437 27.4724 74.0565C29.1494 71.8037 29.9116 68.7934 31.036 66.0821C31.3166 65.2808 31.5489 64.4618 31.7316 63.63L32.6177 63.8294Z" fill="#DB915E" />
                            <path d="M21.3552 70.438C20.5929 70.757 19.621 71.5544 19.1255 71.3052C18.1727 70.8567 17.5915 69.7901 16.8578 68.9827C17.5057 68.3946 18.3919 67.1785 18.7635 67.338C19.7721 67.9134 20.691 68.6461 21.4886 69.511L21.3552 70.438Z" fill="#DB915E" />
                            <path d="M23.4991 66.5805C22.705 65.6881 22.0376 64.681 21.5172 63.5901C21.4219 63.2911 22.975 61.9454 23.2609 62.0949C24.1411 62.6195 24.8512 63.4075 25.2999 64.3576C25.4333 64.6866 24.3566 65.5737 23.4991 66.5805Z" fill="#DB915E" />
                            <path d="M43.7754 63.6499L50.9979 53.682C53.3419 56.8219 53.4467 60.0416 51.5505 62.3441C50.649 63.5448 49.3481 64.3459 47.9071 64.5879C46.4661 64.8299 44.9909 64.495 43.7754 63.6499ZM52.3509 59.4834L51.5886 58.8952C50.8364 59.2318 50.1913 59.7855 49.729 60.4916C49.2666 61.1978 49.0061 62.027 48.9779 62.8824L49.5972 63.3608L52.3509 59.4834Z" fill="#DB915E" />
                            <path d="M43.1846 59.4833C42.6022 58.7352 42.1388 57.8938 41.8125 56.9913C41.8125 56.6225 42.5939 56.1141 43.0227 55.6755C43.6296 56.1672 44.1517 56.7639 44.5662 57.4399C44.6615 57.7389 43.9183 58.4367 43.1846 59.4833Z" fill="#DB915E" />
                            <path d="M45.6144 54.7685C45.2713 54.2202 44.6615 53.6521 44.6615 53.1338C44.6615 52.6154 45.4619 52.2266 45.9097 51.7781C46.3766 52.3562 47.0531 52.8746 47.2342 53.5424C47.358 54.0209 46.8245 54.6987 46.5863 55.2868L45.6144 54.7685Z" fill="#DB915E" />
                        </g>
                        <defs>
                            <clipPath id="clip0_47_674">
                                <rect width="179.428" height="113.983" fill="white" transform="translate(0.859703 0.0245361)" />
                            </clipPath>
                        </defs>
                    </svg>