<svg width="1920" height="1691" viewBox="0 0 1920 1691" fill="none" xmlns="http://www.w3.org/2000/svg">
<rect width="1829.44" height="1258.37" transform="matrix(-1 0 0 1 1871.84 216.153)" fill="#F7F3F0"/>
<path fill-rule="evenodd" clip-rule="evenodd" d="M511.476 215.596C358.065 215.596 -123.637 215.596 29.7792 215.596C183.195 215.596 342.063 98.6122 495.474 82.3535C648.89 66.0878 801.835 140.584 955.645 112.868C1106.66 85.6461 1255.98 13.9416 1408.69 3.71122C1506.06 -2.81058 1606.36 -5.01036 1700.39 34.4095C1733.95 48.4754 1764.08 62.5202 1797.1 79.3147C1822.13 92.041 1870.4 96.7861 1870.41 87.571V215.596H1810.38C1733.68 215.596 1438.51 215.596 1438.51 215.596C1438.51 215.596 1106.26 215.596 952.846 215.596C799.434 215.596 664.892 215.596 511.476 215.596Z" fill="#F7F3F0"/>
<path fill-rule="evenodd" clip-rule="evenodd" d="M1408.94 1475C1562.35 1475 2044.05 1475 1890.64 1475C1737.22 1475 1578.35 1591.98 1424.94 1608.24C1271.52 1624.51 1118.58 1550.01 964.77 1577.73C813.759 1604.95 664.439 1676.65 511.728 1686.88C414.357 1693.41 314.059 1695.61 220.023 1656.19C186.466 1642.12 156.332 1628.08 123.311 1611.28C98.28 1598.55 50.0183 1593.81 50 1603.02V1475H110.031C186.736 1475 481.9 1475 481.9 1475C481.9 1475 814.153 1475 967.569 1475C1120.98 1475 1255.52 1475 1408.94 1475Z" fill="#F7F3F0"/>
</svg>
